<mxfile host="app.diagrams.net" modified="2023-09-19T12:19:36.071Z" agent="Mozilla/5.0 (Windows NT 10.0; Win64; x64) AppleWebKit/537.36 (KHTML, like Gecko) Chrome/116.0.0.0 Safari/537.36" etag="B6pQ_O5WqncfcokDRByx" version="21.7.5" type="github">
  <diagram name="Page-1" id="F6TXrcp_lOG0oqvVlDIr">
    <mxGraphModel dx="1711" dy="1524" grid="1" gridSize="10" guides="1" tooltips="1" connect="1" arrows="1" fold="1" page="1" pageScale="1" pageWidth="850" pageHeight="1100" math="0" shadow="0">
      <root>
        <mxCell id="0" />
        <mxCell id="1" parent="0" />
        <mxCell id="ECs139m2cKoNgQv10tvU-7" style="edgeStyle=orthogonalEdgeStyle;rounded=0;orthogonalLoop=1;jettySize=auto;html=1;entryX=0.25;entryY=0;entryDx=0;entryDy=0;flowAnimation=1;fillColor=#f8cecc;strokeColor=#b85450;" edge="1" parent="1" source="ECs139m2cKoNgQv10tvU-1" target="ECs139m2cKoNgQv10tvU-3">
          <mxGeometry relative="1" as="geometry" />
        </mxCell>
        <mxCell id="ECs139m2cKoNgQv10tvU-1" value="FLEXIM&lt;br&gt;XLS" style="whiteSpace=wrap;html=1;aspect=fixed;fontStyle=1;strokeColor=#df3a3a;fillColor=#eea0a0;" vertex="1" parent="1">
          <mxGeometry x="80" y="80" width="80" height="80" as="geometry" />
        </mxCell>
        <mxCell id="ECs139m2cKoNgQv10tvU-6" style="edgeStyle=orthogonalEdgeStyle;rounded=0;orthogonalLoop=1;jettySize=auto;html=1;entryX=0.75;entryY=0;entryDx=0;entryDy=0;flowAnimation=1;fillColor=#60a917;strokeColor=#2D7600;" edge="1" parent="1" source="ECs139m2cKoNgQv10tvU-2" target="ECs139m2cKoNgQv10tvU-3">
          <mxGeometry relative="1" as="geometry" />
        </mxCell>
        <mxCell id="ECs139m2cKoNgQv10tvU-2" value="&lt;b&gt;Oracle EPM&lt;br&gt;XLS&lt;br&gt;&lt;/b&gt;" style="whiteSpace=wrap;html=1;aspect=fixed;fillColor=#13e752;" vertex="1" parent="1">
          <mxGeometry x="280" y="80" width="80" height="80" as="geometry" />
        </mxCell>
        <mxCell id="ECs139m2cKoNgQv10tvU-8" style="edgeStyle=orthogonalEdgeStyle;rounded=0;orthogonalLoop=1;jettySize=auto;html=1;entryX=0;entryY=0.5;entryDx=0;entryDy=0;flowAnimation=1;fillColor=#cdeb8b;strokeColor=#36393d;" edge="1" parent="1" source="ECs139m2cKoNgQv10tvU-3" target="ECs139m2cKoNgQv10tvU-4">
          <mxGeometry relative="1" as="geometry" />
        </mxCell>
        <mxCell id="ECs139m2cKoNgQv10tvU-3" value="&lt;font style=&quot;font-size: 10px;&quot;&gt;&lt;b&gt;Pivot/VLookups&lt;/b&gt;&lt;/font&gt;" style="whiteSpace=wrap;html=1;aspect=fixed;fillColor=#c79bf3;" vertex="1" parent="1">
          <mxGeometry x="180" y="240" width="80" height="80" as="geometry" />
        </mxCell>
        <mxCell id="ECs139m2cKoNgQv10tvU-22" style="edgeStyle=orthogonalEdgeStyle;rounded=0;orthogonalLoop=1;jettySize=auto;html=1;entryX=0;entryY=0.5;entryDx=0;entryDy=0;flowAnimation=1;" edge="1" parent="1" source="ECs139m2cKoNgQv10tvU-4" target="ECs139m2cKoNgQv10tvU-21">
          <mxGeometry relative="1" as="geometry" />
        </mxCell>
        <mxCell id="ECs139m2cKoNgQv10tvU-4" value="HFM Load File" style="whiteSpace=wrap;html=1;aspect=fixed;fontStyle=1;fillColor=#e9eab3;" vertex="1" parent="1">
          <mxGeometry x="420" y="240" width="80" height="80" as="geometry" />
        </mxCell>
        <mxCell id="ECs139m2cKoNgQv10tvU-10" value="&lt;br&gt;&lt;div style=&quot;&quot;&gt;&lt;ul&gt;&lt;li style=&quot;text-align: left;&quot;&gt;&lt;span style=&quot;background-color: initial;&quot;&gt;Natural Account&lt;/span&gt;&lt;/li&gt;&lt;/ul&gt;&lt;/div&gt;" style="shape=note;whiteSpace=wrap;html=1;backgroundOutline=1;darkOpacity=0.05;" vertex="1" parent="1">
          <mxGeometry x="70" y="-10" width="100" height="80" as="geometry" />
        </mxCell>
        <mxCell id="ECs139m2cKoNgQv10tvU-11" value="&lt;br&gt;&lt;div style=&quot;&quot;&gt;&lt;ul&gt;&lt;li style=&quot;text-align: left;&quot;&gt;&lt;span style=&quot;background-color: initial;&quot;&gt;Natural Account&lt;/span&gt;&lt;/li&gt;&lt;li style=&quot;text-align: left;&quot;&gt;&lt;span style=&quot;background-color: initial;&quot;&gt;HFM Codes&lt;/span&gt;&lt;/li&gt;&lt;/ul&gt;&lt;/div&gt;" style="shape=note;whiteSpace=wrap;html=1;backgroundOutline=1;darkOpacity=0.05;" vertex="1" parent="1">
          <mxGeometry x="280" y="-10" width="130" height="80" as="geometry" />
        </mxCell>
        <mxCell id="ECs139m2cKoNgQv10tvU-17" style="edgeStyle=orthogonalEdgeStyle;rounded=0;orthogonalLoop=1;jettySize=auto;html=1;entryX=1;entryY=0.5;entryDx=0;entryDy=0;flowAnimation=0;" edge="1" parent="1" source="ECs139m2cKoNgQv10tvU-16" target="ECs139m2cKoNgQv10tvU-2">
          <mxGeometry relative="1" as="geometry" />
        </mxCell>
        <mxCell id="ECs139m2cKoNgQv10tvU-16" value="Oracle COA" style="rounded=0;whiteSpace=wrap;html=1;fillColor=#cce5ff;strokeColor=#36393d;fontStyle=1" vertex="1" parent="1">
          <mxGeometry x="420" y="90" width="120" height="60" as="geometry" />
        </mxCell>
        <mxCell id="ECs139m2cKoNgQv10tvU-19" style="edgeStyle=orthogonalEdgeStyle;rounded=0;orthogonalLoop=1;jettySize=auto;html=1;entryX=0;entryY=0.5;entryDx=0;entryDy=0;flowAnimation=1;" edge="1" parent="1" source="ECs139m2cKoNgQv10tvU-18" target="ECs139m2cKoNgQv10tvU-1">
          <mxGeometry relative="1" as="geometry" />
        </mxCell>
        <mxCell id="ECs139m2cKoNgQv10tvU-18" value="FLEXIM SYS&lt;br&gt;Monthly" style="rounded=0;whiteSpace=wrap;html=1;fillColor=#ffff88;strokeColor=#36393d;fontStyle=1" vertex="1" parent="1">
          <mxGeometry x="-90" y="90" width="120" height="60" as="geometry" />
        </mxCell>
        <mxCell id="ECs139m2cKoNgQv10tvU-20" value="&lt;br&gt;&lt;br&gt;&lt;b&gt;Mapping&lt;/b&gt;&lt;br&gt;&lt;div style=&quot;&quot;&gt;&lt;ul&gt;&lt;li style=&quot;text-align: left;&quot;&gt;&lt;span style=&quot;background-color: initial;&quot;&gt;Oracle Natural Account&lt;/span&gt;&lt;/li&gt;&lt;li style=&quot;text-align: left;&quot;&gt;&lt;span style=&quot;background-color: initial;&quot;&gt;Oracle HFM Codes&lt;/span&gt;&lt;/li&gt;&lt;li style=&quot;text-align: left;&quot;&gt;&lt;span style=&quot;background-color: initial;&quot;&gt;FLEXIM Natural Account&lt;/span&gt;&lt;/li&gt;&lt;li style=&quot;text-align: left;&quot;&gt;&lt;span style=&quot;background-color: initial;&quot;&gt;Specific to the Amount&lt;/span&gt;&lt;/li&gt;&lt;/ul&gt;&lt;div style=&quot;text-align: left;&quot;&gt;- Where to create and update the data&lt;/div&gt;&lt;div style=&quot;text-align: left;&quot;&gt;&lt;br&gt;&lt;/div&gt;&lt;div style=&quot;text-align: left;&quot;&gt;- Is this keep in Team Folder and share to associate&lt;/div&gt;&lt;/div&gt;" style="shape=note;whiteSpace=wrap;html=1;backgroundOutline=1;darkOpacity=0.05;" vertex="1" parent="1">
          <mxGeometry x="-40" y="180" width="170" height="220" as="geometry" />
        </mxCell>
        <mxCell id="ECs139m2cKoNgQv10tvU-21" value="EMR Financial Statement Accounts" style="whiteSpace=wrap;html=1;aspect=fixed;fontStyle=1;fillColor=#cdeb8b;strokeColor=#36393d;" vertex="1" parent="1">
          <mxGeometry x="600" y="240" width="80" height="80" as="geometry" />
        </mxCell>
      </root>
    </mxGraphModel>
  </diagram>
</mxfile>
